<?xml version="1.0" standalone="no"?>
<!DOCTYPE svg PUBLIC "-//W3C//DTD SVG 1.1//EN" "http://www.w3.org/Graphics/SVG/1.1/DTD/svg11.dtd" >
<svg xmlns="http://www.w3.org/2000/svg" xmlns:xlink="http://www.w3.org/1999/xlink" version="1.1">
<metadata>
Created by FontForge 20170731 at Wed Apr  6 14:41:25 2016
 By Aleksey,,,
Copyright (c) 2016 by Alberto Romanos. All rights reserved.
</metadata>
<defs>
<font id="BwModelica-Light" horiz-adv-x="1464" >
  <font-face 
    font-family="Bw Modelica Light"
    font-weight="400"
    font-stretch="normal"
    units-per-em="2048"
    panose-1="0 0 5 0 0 0 0 0 0 0"
    ascent="1597"
    descent="-451"
    x-height="1075"
    cap-height="1516"
    bbox="-168 -471 2413 2062"
    underline-thickness="102"
    underline-position="-510"
    unicode-range="U+000D-FB02"
  />
<missing-glyph horiz-adv-x="748" 
d="M68 0v1365h544v-1365h-544zM136 68h408v1229h-408v-1229z" />
    <glyph glyph-name="uniFB01" unicode="fi" horiz-adv-x="1206" 
d="M41 991v84h190v256q0 129 82.5 208t216.5 79q130 0 211 -41l-10 -82q-67 37 -180 37q-99 0 -160 -59.5t-61 -157.5v-240h397v-84h-397v-991h-99v991h-190zM899 1458q0 31 21.5 52.5t52.5 21.5q32 0 54 -21.5t22 -52.5q0 -32 -22 -54t-54 -22q-31 0 -52.5 22t-21.5 54z
M926 0v1075h98v-1075h-98z" />
    <glyph glyph-name="uniFB02" unicode="fl" horiz-adv-x="1212" 
d="M41 991v84h190v256q0 129 82.5 208t216.5 79q130 0 211 -41l-10 -82q-67 37 -180 37q-99 0 -160 -59.5t-61 -157.5v-240h397v-84h-397v-991h-99v991h-190zM930 0v1597h98v-1597h-98z" />
    <glyph glyph-name=".notdef" horiz-adv-x="748" 
d="M68 0v1365h544v-1365h-544zM136 68h408v1229h-408v-1229z" />
    <glyph glyph-name="glyph1" horiz-adv-x="0" 
 />
    <glyph glyph-name="glyph2" horiz-adv-x="682" 
 />
    <glyph glyph-name="uni000D" unicode="&#xd;" horiz-adv-x="477" 
 />
    <glyph glyph-name="space" unicode=" " horiz-adv-x="557" 
 />
    <glyph glyph-name="exclam" unicode="!" horiz-adv-x="507" 
d="M180 53q0 32 21 53t53 21q31 0 52.5 -21t21.5 -53q0 -31 -21.5 -52t-52.5 -21q-32 0 -53 21t-21 52zM201 1516h106l-8 -1221h-90z" />
    <glyph glyph-name="quotedbl" unicode="&#x22;" horiz-adv-x="638" 
d="M145 1597l2 -442h86l3 442h-91zM403 1597l3 -442h86l2 442h-91z" />
    <glyph glyph-name="numbersign" unicode="#" horiz-adv-x="1359" 
d="M74 430l18 74h248l96 418h-250l19 73h248l102 439h82l-102 -439h417l103 439h80l-101 -439h250l-16 -73h-250l-98 -418h251l-18 -74h-250l-100 -430h-80l98 430h-418l-98 -430h-82l101 430h-250zM422 504h418l96 418h-418z" />
    <glyph glyph-name="dollar" unicode="$" horiz-adv-x="1142" 
d="M113 1137q0 170 113.5 278t301.5 119v63h66v-61q245 -5 397 -174l-53 -76q-139 154 -344 160v-625l22 -6q49 -17 86 -31t84 -36.5t81 -46t69.5 -57t57.5 -71t36 -87t14 -105.5q0 -172 -123 -281t-327 -120v-66h-66v66q-127 5 -232.5 47.5t-172.5 124.5l43 75
q141 -153 362 -159v661l-69 23q-50 17 -89.5 34t-81 41t-71.5 53.5t-54.5 66.5t-37 85t-12.5 105zM221 1151q0 -53 16 -97t40 -73t63.5 -55t75.5 -42t88 -34l24 -8v604q-140 -11 -223.5 -91t-83.5 -204zM594 70q158 10 250 92t92 211q0 117 -80.5 194.5t-261.5 141.5v-639z
" />
    <glyph glyph-name="percent" unicode="%" horiz-adv-x="1505" 
d="M78 1202q0 151 88.5 242.5t234.5 91.5t234 -91.5t88 -242.5q0 -152 -88 -244t-234 -92t-234.5 92t-88.5 244zM168 1202q0 -120 63.5 -192t169.5 -72q105 0 168.5 72t63.5 192q0 118 -64 190t-168 72q-106 0 -169.5 -71.5t-63.5 -190.5zM279 20l888 1516l64 -41
l-889 -1515zM780 313q0 152 89 244t235 92t233.5 -92t87.5 -244q0 -151 -87.5 -242t-233.5 -91t-235 91t-89 242zM870 313q0 -118 64 -190t170 -72q104 0 167.5 72t63.5 190q0 120 -63.5 192.5t-167.5 72.5q-106 0 -170 -72.5t-64 -192.5z" />
    <glyph glyph-name="ampersand" unicode="&#x26;" horiz-adv-x="1597" 
d="M115 403q0 154 90.5 263t247.5 149q-122 40 -191 131.5t-69 218.5q0 167 119.5 269t316.5 102q195 0 313.5 -102.5t118.5 -270.5v-309h416v-82h-416v-493q0 -95 57.5 -154t149.5 -59q121 0 225 38v-81q-94 -43 -254 -43q-99 0 -169 51t-95 139q-59 -95 -166.5 -142.5
t-239.5 -47.5q-203 0 -328.5 116.5t-125.5 306.5zM219 418q0 -158 103 -255t272 -97q72 0 137.5 18.5t117.5 54t83 92t31 127.5v414h-334q-185 0 -297.5 -97t-112.5 -257zM297 1153q0 -135 91.5 -217t240.5 -82h334v297q0 135 -91.5 217t-242.5 82q-149 0 -240.5 -81.5
t-91.5 -215.5z" />
    <glyph glyph-name="quotesingle" unicode="'" horiz-adv-x="380" 
d="M145 1597l2 -442h86l3 442h-91z" />
    <glyph glyph-name="parenleft" unicode="(" horiz-adv-x="563" 
d="M113 614q0 129 21 258.5t52 231t74.5 201t79.5 165t76 127.5h90q-26 -46 -32 -56.5t-36.5 -67t-43 -85.5t-41 -94.5t-42.5 -113t-35 -121t-31 -138.5t-18 -145.5t-8 -161.5t8 -161.5t18 -145.5t31 -138.5t35 -121t42.5 -113t41 -94.5t43 -85.5t36.5 -67t32 -56.5h-90
q-40 62 -76 127.5t-79.5 165t-74.5 201t-52 231t-21 258.5z" />
    <glyph glyph-name="parenright" unicode=")" horiz-adv-x="563" 
d="M57 -369q26 46 32 56.5t36.5 67t43 85.5t41 94.5t42.5 113t35 121t31 138.5t18 145.5t8 161.5t-8 161.5t-18 145.5t-31 138.5t-35 121t-42.5 113t-41 94.5t-43 85.5t-36.5 67t-32 56.5h90q52 -80 97.5 -169t96 -216t80.5 -283t30 -315t-30 -315t-80.5 -283t-96 -216
t-97.5 -169h-90z" />
    <glyph glyph-name="asterisk" unicode="*" horiz-adv-x="798" 
d="M117 1290l26 76l222 -78l-7 228h80l-4 -228l221 78l27 -76l-229 -69l145 -187l-66 -47l-133 193l-135 -193l-63 47l143 187z" />
    <glyph glyph-name="plus" unicode="+" horiz-adv-x="1064" 
d="M109 666v84h374v370h99v-370h374v-84h-374v-369h-99v369h-374z" />
    <glyph glyph-name="comma" unicode="," horiz-adv-x="428" 
d="M29 -297l141 426h121l-160 -426h-102z" />
    <glyph glyph-name="hyphen" unicode="-" horiz-adv-x="858" 
d="M152 549v76h555v-76h-555z" />
    <glyph glyph-name="period" unicode="." horiz-adv-x="430" 
d="M131 63q0 35 25 59.5t59 24.5t59 -24.5t25 -59.5q0 -34 -25 -58.5t-59 -24.5t-59 24.5t-25 58.5z" />
    <glyph glyph-name="slash" unicode="/" horiz-adv-x="776" 
d="M92 -205l490 1802h100l-489 -1802h-101z" />
    <glyph glyph-name="zero" unicode="0" horiz-adv-x="1394" 
d="M123 758q0 350 158.5 564t416.5 214t416 -214t158 -564t-158 -564t-416 -214t-416.5 214t-158.5 564zM233 758q0 -311 127.5 -500.5t337.5 -189.5q209 0 336 189.5t127 500.5t-127 500.5t-336 189.5q-210 0 -337.5 -189.5t-127.5 -500.5z" />
    <glyph glyph-name="one" unicode="1" horiz-adv-x="819" 
d="M31 1153l491 363h80v-1516h-104v1374l-410 -299z" />
    <glyph glyph-name="two" unicode="2" horiz-adv-x="1132" 
d="M98 0v70l455 489q7 8 52 55.5t60 64t55 63.5t57 73t45.5 72.5t41 81.5t23 80t10.5 88q0 144 -92 227.5t-244 83.5q-155 0 -248.5 -90t-93.5 -238l-108 8q0 183 123.5 295.5t324.5 112.5t323 -105.5t122 -283.5q0 -52 -12 -105.5t-29 -97.5t-49.5 -96.5t-57.5 -88t-70 -88
t-71 -80t-76 -80.5q-12 -13 -18 -19l-379 -404h784v-88h-928z" />
    <glyph glyph-name="three" unicode="3" horiz-adv-x="1140" 
d="M92 158l43 78q122 -168 375 -168q187 0 300.5 98.5t113.5 261.5q0 155 -111.5 249.5t-294.5 94.5q-140 0 -246 -53l-26 55l602 653h-705v89h848v-68l-563 -602q65 10 125 10q218 0 350.5 -118t132.5 -310q0 -203 -140.5 -325.5t-373.5 -122.5q-142 0 -254.5 45
t-175.5 133z" />
    <glyph glyph-name="four" unicode="4" horiz-adv-x="1222" 
d="M47 342v82l784 1092h91v-1086h235v-88h-235v-342h-107v342h-768zM152 428h667v932z" />
    <glyph glyph-name="five" unicode="5" horiz-adv-x="1148" 
d="M84 123l33 82q137 -137 389 -137q192 0 310 103.5t118 270.5q0 164 -104 264.5t-273 100.5q-154 0 -305 -53l-74 10l105 752h694v-89h-598l-88 -571q140 41 284 41q211 0 340 -123.5t129 -324.5q0 -210 -146.5 -339.5t-383.5 -129.5q-284 0 -430 143z" />
    <glyph glyph-name="six" unicode="6" horiz-adv-x="1130" 
d="M96 444q0 181 101 322l499 750h121l-440 -646q93 41 215 41q204 0 331.5 -127t127.5 -335q0 -212 -131 -340.5t-347 -128.5q-215 0 -346 127.5t-131 336.5zM207 446q0 -170 101 -274t265 -104t265.5 104t101.5 274q0 171 -101 276t-266 105q-164 0 -265 -104.5
t-101 -276.5z" />
    <glyph glyph-name="seven" unicode="7" horiz-adv-x="1017" 
d="M43 1427v89h936l-553 -1516h-115l527 1427h-795z" />
    <glyph glyph-name="eight" unicode="8" horiz-adv-x="1202" 
d="M123 395q0 143 79.5 246t217.5 145q-120 42 -188 135.5t-68 221.5q0 177 120.5 285t317.5 108q196 0 316 -107.5t120 -283.5q0 -129 -68 -223t-188 -136q138 -42 217.5 -144t79.5 -245q0 -187 -131.5 -302t-345.5 -115q-216 0 -347.5 114t-131.5 301zM233 403
q0 -152 101 -243.5t266 -91.5q166 0 266.5 91.5t100.5 243.5q0 151 -101 243.5t-266 92.5q-164 0 -265.5 -92.5t-101.5 -243.5zM274 1137q0 -138 90 -223t236 -85q147 0 236.5 85t89.5 223q0 140 -89.5 225.5t-236.5 85.5q-146 0 -236 -85.5t-90 -225.5z" />
    <glyph glyph-name="nine" unicode="9" horiz-adv-x="1130" 
d="M80 1067q0 212 131 340.5t346 128.5t346 -128t131 -337q0 -182 -100 -321l-500 -750h-121l441 645q-93 -41 -215 -41q-204 0 -331.5 127.5t-127.5 335.5zM190 1069q0 -171 101 -276t266 -105t266 105t101 276q0 170 -101.5 274.5t-265.5 104.5t-265.5 -104.5
t-101.5 -274.5z" />
    <glyph glyph-name="colon" unicode=":" horiz-adv-x="468" 
d="M152 63q0 35 24.5 59.5t59.5 24.5q34 0 58.5 -24.5t24.5 -59.5q0 -34 -24.5 -58.5t-58.5 -24.5q-35 0 -59.5 24.5t-24.5 58.5zM152 1012q0 34 24.5 59t59.5 25q34 0 58.5 -25t24.5 -59q0 -35 -24.5 -60.5t-58.5 -25.5q-35 0 -59.5 25.5t-24.5 60.5z" />
    <glyph glyph-name="semicolon" unicode=";" horiz-adv-x="577" 
d="M125 -297l141 426h121l-160 -426h-102zM213 1012q0 34 25 59t59 25t59 -25t25 -59q0 -35 -25 -60.5t-59 -25.5t-59 25.5t-25 60.5z" />
    <glyph glyph-name="less" unicode="&#x3c;" horiz-adv-x="1042" 
d="M78 688v57l815 426v-96l-692 -358l692 -359v-96z" />
    <glyph glyph-name="equal" unicode="=" horiz-adv-x="1165" 
d="M158 426v82h850v-82h-850zM158 907v84h850v-84h-850z" />
    <glyph glyph-name="greater" unicode="&#x3e;" horiz-adv-x="1042" 
d="M150 262v96l692 359l-692 358v96l815 -426v-57z" />
    <glyph glyph-name="question" unicode="?" horiz-adv-x="1042" 
d="M72 1151q6 173 127 279t313 106q203 0 327 -105t124 -276q0 -62 -13 -110.5t-43 -89t-53.5 -64t-69.5 -62.5q-34 -29 -50.5 -44t-47 -46.5t-46.5 -57t-37.5 -68t-32.5 -86t-19 -103.5t-8 -129h-88q0 79 8.5 147.5t20 118t34 96t40 75t48.5 62t48.5 49.5t50.5 44
q38 31 58 51t44 52t34.5 70t10.5 87q0 135 -93.5 218t-246.5 83q-147 0 -240.5 -83t-99.5 -218zM424 53q0 32 22 53t54 21q31 0 52 -21t21 -53q0 -31 -21 -52t-52 -21q-32 0 -54 21t-22 52z" />
    <glyph glyph-name="at" unicode="@" horiz-adv-x="2146" 
d="M113 528q0 226 69.5 414.5t196 320t309 204.5t402.5 73q274 0 486 -110t329.5 -312.5t117.5 -466.5q0 -252 -102.5 -407.5t-269.5 -155.5q-103 0 -172 62t-88 167q-44 -108 -137 -170.5t-228 -62.5q-190 0 -305 122.5t-115 323.5q0 202 115 325.5t303 123.5
q128 0 217.5 -57.5t134.5 -161.5l2 203h95v-576q0 -97 47.5 -155t130.5 -58q121 0 196.5 129.5t75.5 339.5q0 241 -105.5 426.5t-294.5 286t-433 100.5q-262 0 -461 -116t-306.5 -327t-107.5 -487q0 -273 105.5 -479t304.5 -319t465 -113q121 0 276.5 21t273.5 57l35 -76
q-124 -40 -286.5 -64t-296.5 -24q-299 0 -521.5 124.5t-340 350t-117.5 524.5zM709 530q0 -163 91 -262.5t242 -99.5q150 0 241 100t91 262q0 163 -91 263t-241 100t-241.5 -100t-91.5 -263z" />
    <glyph glyph-name="A" unicode="A" 
d="M10 0l672 1516h100l672 -1516h-113l-190 432h-840l-188 -432h-113zM350 520h762l-379 871z" />
    <glyph glyph-name="B" unicode="B" horiz-adv-x="1380" 
d="M217 0v1516h539q201 0 323.5 -104.5t122.5 -274.5q0 -127 -70 -216.5t-196 -129.5q153 -29 242.5 -129.5t89.5 -247.5q0 -186 -128 -300t-339 -114h-584zM324 88h454q170 0 274.5 89t104.5 235q0 144 -104 232.5t-273 88.5h-456v-645zM324 823h405q163 0 263 83t100 218
q0 136 -103 219.5t-270 83.5h-395v-604z" />
    <glyph glyph-name="C" unicode="C" horiz-adv-x="1544" 
d="M115 760q0 172 54 317t152 246t238 157t307 56q334 0 561 -248l-65 -67q-202 227 -490 227q-292 0 -469.5 -188.5t-177.5 -497.5q0 -312 176 -503t463 -191q169 0 306 73.5t227 198.5l71 -68q-101 -136 -257 -214t-347 -78q-337 0 -543 214.5t-206 565.5z" />
    <glyph glyph-name="D" unicode="D" horiz-adv-x="1546" 
d="M217 0v1516h483q162 0 298.5 -55t232 -154t148.5 -241.5t53 -311.5q0 -339 -201.5 -546.5t-530.5 -207.5h-483zM324 88h360q287 0 462 183t175 483q0 303 -175 488t-462 185h-360v-1339z" />
    <glyph glyph-name="E" unicode="E" horiz-adv-x="1259" 
d="M217 0v1516h899v-89h-792v-608h745v-90h-745v-641h811v-88h-918z" />
    <glyph glyph-name="F" unicode="F" horiz-adv-x="1112" 
d="M217 0v1516h819v-89h-712v-649h643v-90h-643v-688h-107z" />
    <glyph glyph-name="G" unicode="G" horiz-adv-x="1619" 
d="M117 758q0 350 200 564t527 214q150 0 267 -34.5t228 -117.5l-69 -69q-171 133 -424 133q-278 0 -448.5 -190t-170.5 -500t170.5 -500t448.5 -190q263 0 422 171t168 457h-516v90h626v-28q-2 -358 -191 -568t-511 -210q-327 0 -527 214t-200 564z" />
    <glyph glyph-name="H" unicode="H" horiz-adv-x="1636" 
d="M217 0v1516h107v-703h989v703h104v-1516h-104v725h-989v-725h-107z" />
    <glyph glyph-name="I" unicode="I" horiz-adv-x="540" 
d="M217 0v1516h107v-1516h-107z" />
    <glyph glyph-name="J" unicode="J" horiz-adv-x="821" 
d="M23 84l28 72q43 -43 102.5 -65.5t120.5 -22.5q109 0 172.5 65t63.5 172v1211h106v-1233q0 -138 -87.5 -220.5t-239.5 -82.5q-80 0 -151.5 27t-114.5 77z" />
    <glyph glyph-name="K" unicode="K" horiz-adv-x="1366" 
d="M217 0v1516h107v-695h329l543 695h131l-582 -740l601 -776h-132l-563 733h-327v-733h-107z" />
    <glyph glyph-name="L" unicode="L" horiz-adv-x="1085" 
d="M217 0v1516h107v-1428h733v-88h-840z" />
    <glyph glyph-name="M" unicode="M" horiz-adv-x="2013" 
d="M176 0l88 1532h94l650 -1421l647 1421h96l86 -1532h-104l-72 1317l-602 -1317h-105l-602 1317l-69 -1317h-107z" />
    <glyph glyph-name="N" unicode="N" horiz-adv-x="1697" 
d="M217 0v1516h70l1089 -1330v1330h105v-1516h-70l-1089 1329l2 -1329h-107z" />
    <glyph glyph-name="O" unicode="O" horiz-adv-x="1714" 
d="M115 758q0 350 204.5 564t538.5 214q333 0 537 -214t204 -564t-204 -564t-537 -214q-334 0 -538.5 214t-204.5 564zM225 758q0 -310 174.5 -500t458.5 -190t457.5 189.5t173.5 500.5t-173.5 500.5t-457.5 189.5t-458.5 -190t-174.5 -500z" />
    <glyph glyph-name="P" unicode="P" horiz-adv-x="1300" 
d="M217 0v1516h528q217 0 349.5 -124t132.5 -327q0 -207 -131 -333t-348 -126h-424v-606h-107zM324 694h403q176 0 282.5 101t106.5 266q0 164 -107 265t-282 101h-403v-733z" />
    <glyph glyph-name="Q" unicode="Q" horiz-adv-x="1716" 
d="M115 758q0 350 204.5 564t538.5 214q333 0 537 -214t204 -564q0 -308 -159 -512l192 -246h-125l-133 172q-201 -192 -516 -192q-334 0 -538.5 214t-204.5 564zM225 758q0 -310 174.5 -500t458.5 -190q278 0 453 184l-197 250h127l131 -170q117 174 117 426
q0 311 -173.5 500.5t-457.5 189.5t-458.5 -190t-174.5 -500z" />
    <glyph glyph-name="R" unicode="R" horiz-adv-x="1404" 
d="M217 0v1516h531q226 0 362.5 -120.5t136.5 -318.5q0 -157 -91 -268.5t-249 -149.5l441 -659h-125l-426 643q-16 -2 -49 -2h-424v-641h-107zM324 729h415q178 0 288 96.5t110 251.5q0 158 -111 254t-293 96h-409v-698z" />
    <glyph glyph-name="S" unicode="S" horiz-adv-x="1165" 
d="M125 1137q0 180 126 289.5t333 109.5q261 0 417 -174l-51 -76q-147 162 -368 162q-156 0 -251 -82t-95 -215q0 -67 22.5 -117.5t67.5 -85t89.5 -56t112.5 -44.5l101 -35q49 -17 85 -30.5t83.5 -36.5t81.5 -46t69.5 -56.5t58 -70.5t36.5 -86.5t14 -105.5
q0 -180 -135 -290.5t-353 -110.5q-135 0 -250 43t-186 129l45 75q144 -159 381 -159q175 0 280 83.5t105 221.5q0 68 -26.5 122.5t-80.5 95t-117 70t-153 58.5l-96 33q-61 21 -107 42t-93.5 53.5t-77.5 71.5t-49 94.5t-19 123.5z" />
    <glyph glyph-name="T" unicode="T" horiz-adv-x="1155" 
d="M27 1427v89h1101v-89h-499v-1427h-105v1427h-497z" />
    <glyph glyph-name="U" unicode="U" horiz-adv-x="1609" 
d="M199 528v988h104v-984q0 -209 138 -336.5t364 -127.5t364 127.5t138 336.5v984h106v-988q0 -247 -167 -397.5t-441 -150.5t-440 150t-166 398z" />
    <glyph glyph-name="V" unicode="V" horiz-adv-x="1466" 
d="M12 1516h113l610 -1393l606 1393h115l-672 -1516h-100z" />
    <glyph glyph-name="W" unicode="W" horiz-adv-x="2318" 
d="M23 1516h114l510 -1375l461 1375h102l463 -1375l508 1375h113l-570 -1516h-100l-465 1364l-465 -1364h-102z" />
    <glyph glyph-name="X" unicode="X" horiz-adv-x="1280" 
d="M16 0l562 780l-512 736h122l453 -654l453 654h120l-512 -734l564 -782h-123l-504 702l-502 -702h-121z" />
    <glyph glyph-name="Y" unicode="Y" horiz-adv-x="1316" 
d="M37 1516h119l503 -785l502 785h119l-569 -881v-635h-105v635z" />
    <glyph glyph-name="Z" unicode="Z" horiz-adv-x="1255" 
d="M70 0v70l956 1357h-944v89h1085v-70l-956 -1358h977v-88h-1118z" />
    <glyph glyph-name="bracketleft" unicode="[" horiz-adv-x="700" 
d="M205 -369v1966h442v-86h-342v-1794h342v-86h-442z" />
    <glyph glyph-name="backslash" unicode="\" horiz-adv-x="776" 
d="M92 1597h101l489 -1802h-100z" />
    <glyph glyph-name="bracketright" unicode="]" horiz-adv-x="700" 
d="M53 -283h342v1794h-342v86h443v-1966h-443v86z" />
    <glyph glyph-name="asciicircum" unicode="^" horiz-adv-x="935" 
d="M113 674l303 606h104l303 -606h-102l-254 504l-252 -504h-102z" />
    <glyph glyph-name="underscore" unicode="_" horiz-adv-x="1026" 
d="M51 0h924v-76h-924v76z" />
    <glyph glyph-name="grave" unicode="`" horiz-adv-x="1228" 
d="M6 1567l299 -297h92l-262 297h-129z" />
    <glyph glyph-name="a" unicode="a" horiz-adv-x="1118" 
d="M82 285q0 145 118.5 233t313.5 88q173 0 342 -43v96q0 161 -93.5 258t-250.5 97q-192 0 -313 -133l-47 63q142 152 378 152q193 0 308.5 -115t115.5 -303v-678h-96l-2 238v24q-53 -132 -169 -207t-259 -75q-156 0 -251 83.5t-95 221.5zM186 287q0 -105 73.5 -168.5
t195.5 -63.5q71 0 141.5 29.5t128.5 82.5t94.5 137.5t36.5 184.5q-166 43 -330 43q-154 0 -247 -67.5t-93 -177.5z" />
    <glyph glyph-name="b" unicode="b" horiz-adv-x="1351" 
d="M176 0v1597h98v-792q55 136 170.5 213.5t286.5 77.5q229 0 372.5 -155t143.5 -406q0 -248 -143.5 -401.5t-372.5 -153.5q-171 0 -286.5 77t-170.5 211v-14l-2 -254h-96zM274 537q0 -212 120 -341.5t315 -129.5q197 0 316.5 128.5t119.5 340.5q0 214 -120 344.5
t-316 130.5q-195 0 -315 -130.5t-120 -342.5z" />
    <glyph glyph-name="c" unicode="c" horiz-adv-x="1087" 
d="M104 539q0 251 148.5 404t392.5 153q197 0 342 -115l-59 -70q-122 99 -285 99q-195 0 -314.5 -130t-119.5 -343q0 -212 120 -341.5t318 -129.5q192 0 314 122l57 -67q-141 -141 -381 -141q-239 0 -386 153.5t-147 405.5z" />
    <glyph glyph-name="d" unicode="d" horiz-adv-x="1351" 
d="M104 535q0 251 143.5 406t373.5 155q172 0 286.5 -77.5t169.5 -213.5v792h99v-1597h-97l-2 254v14q-55 -135 -169.5 -211.5t-286.5 -76.5q-230 0 -373.5 153.5t-143.5 401.5zM209 535q0 -212 119 -340.5t315 -128.5q195 0 314.5 129.5t119.5 341.5t-119.5 342.5
t-314.5 130.5q-196 0 -315 -130.5t-119 -344.5z" />
    <glyph glyph-name="e" unicode="e" horiz-adv-x="1193" 
d="M106 541q0 250 137 402.5t361 152.5q223 0 359.5 -150t136.5 -395v-51h-889q11 -201 117 -321t278 -120q115 0 213 54.5t170 150.5l74 -47q-81 -116 -198.5 -176.5t-256.5 -60.5q-226 0 -364 154.5t-138 406.5zM211 573h786q-8 201 -114 321t-279 120t-279 -120.5
t-114 -320.5z" />
    <glyph glyph-name="f" unicode="f" horiz-adv-x="745" 
d="M41 991v84h190v256q0 129 82.5 208t216.5 79q130 0 211 -41l-10 -82q-67 37 -180 37q-99 0 -160 -59.5t-61 -157.5v-240h397v-84h-397v-991h-99v991h-190z" />
    <glyph glyph-name="g" unicode="g" horiz-adv-x="1351" 
d="M106 541q0 248 143.5 401.5t373.5 153.5q172 0 286.5 -77.5t169.5 -213.5v16l2 254h97v-1007q0 -243 -158 -391t-416 -148q-289 0 -469 143l23 80q189 -137 444 -137q215 0 346 127t131 336v190q-55 -135 -169.5 -211.5t-286.5 -76.5q-230 0 -373.5 154.5t-143.5 406.5z
M211 539q0 -214 119 -343.5t315 -129.5q195 0 314.5 129.5t119.5 341.5q0 213 -119.5 343t-314.5 130q-196 0 -315 -129.5t-119 -341.5z" />
    <glyph glyph-name="h" unicode="h" horiz-adv-x="1288" 
d="M176 0v1597h98v-727q107 226 406 226q200 0 323 -114.5t123 -303.5v-678h-98v655q0 160 -104 257.5t-273 97.5t-273 -97.5t-104 -257.5v-655h-98z" />
    <glyph glyph-name="i" unicode="i" horiz-adv-x="458" 
d="M154 1458q0 31 21 52.5t52 21.5q32 0 54 -21.5t22 -52.5q0 -32 -22 -54t-54 -22q-31 0 -52 22t-21 54zM180 0v1075h99v-1075h-99z" />
    <glyph glyph-name="j" unicode="j" horiz-adv-x="475" 
d="M-168 -440l10 82q62 -27 144 -27q94 0 151.5 65.5t57.5 172.5v1222h98v-1243q0 -136 -79 -219.5t-208 -83.5q-101 0 -174 31zM168 1458q0 31 21.5 52.5t52.5 21.5q32 0 52.5 -21.5t20.5 -52.5q0 -33 -20.5 -54.5t-52.5 -21.5q-31 0 -52.5 22t-21.5 54z" />
    <glyph glyph-name="k" unicode="k" horiz-adv-x="1138" 
d="M176 0v1597h98v-991h269l432 469h127l-477 -510l501 -565h-127l-456 522h-269v-522h-98z" />
    <glyph glyph-name="l" unicode="l" horiz-adv-x="466" 
d="M184 0v1597h99v-1597h-99z" />
    <glyph glyph-name="m" unicode="m" horiz-adv-x="1984" 
d="M176 0v1075h96l2 -196q46 103 138.5 160t228.5 57q135 0 234.5 -66.5t142.5 -181.5q46 115 143 181.5t240 66.5q189 0 304.5 -114.5t115.5 -303.5v-678h-99v655q0 160 -92.5 257.5t-243.5 97.5q-152 0 -244.5 -97.5t-92.5 -257.5v-655h-99v655q0 160 -93 257.5t-245 97.5
t-245 -97.5t-93 -257.5v-655h-98z" />
    <glyph glyph-name="n" unicode="n" horiz-adv-x="1288" 
d="M176 0v1075h96l2 -207q49 108 151.5 168t254.5 60q200 0 323 -114.5t123 -303.5v-678h-98v655q0 160 -104 257.5t-273 97.5t-273 -97.5t-104 -257.5v-655h-98z" />
    <glyph glyph-name="o" unicode="o" horiz-adv-x="1284" 
d="M104 537q0 252 148 405.5t391 153.5q242 0 389.5 -153.5t147.5 -405.5q0 -250 -147.5 -403.5t-389.5 -153.5q-243 0 -391 153t-148 404zM209 537q0 -212 119 -341.5t315 -129.5q195 0 314.5 129.5t119.5 341.5q0 213 -119.5 343t-314.5 130q-196 0 -315 -129.5
t-119 -343.5z" />
    <glyph glyph-name="p" unicode="p" horiz-adv-x="1351" 
d="M176 -451v1526h96l2 -254v-16q55 136 170.5 213.5t286.5 77.5q229 0 372.5 -153.5t143.5 -401.5q0 -252 -143 -406.5t-373 -154.5q-171 0 -286.5 77t-170.5 211v-719h-98zM274 537q0 -212 120 -341.5t315 -129.5q197 0 316.5 129.5t119.5 343.5q0 212 -120 341.5
t-316 129.5q-195 0 -315 -130t-120 -343z" />
    <glyph glyph-name="q" unicode="q" horiz-adv-x="1351" 
d="M104 541q0 248 143.5 401.5t373.5 153.5q172 0 286.5 -77.5t169.5 -213.5v16l2 254h97v-1526h-99v719q-55 -135 -169.5 -211.5t-286.5 -76.5q-230 0 -373.5 154.5t-143.5 406.5zM209 539q0 -214 119 -343.5t315 -129.5q195 0 314.5 129.5t119.5 341.5q0 213 -119.5 343
t-314.5 130q-196 0 -315 -129.5t-119 -341.5z" />
    <glyph glyph-name="r" unicode="r" horiz-adv-x="729" 
d="M176 0v1075h96l2 -205q103 226 439 226l-8 -90q-205 0 -318 -98t-113 -267v-641h-98z" />
    <glyph glyph-name="s" unicode="s" horiz-adv-x="897" 
d="M109 801q0 132 92 213.5t241 81.5q185 0 322 -92l-45 -72q-114 82 -270 82q-107 0 -172.5 -54.5t-65.5 -146.5q0 -79 49.5 -123t145.5 -78l112 -37q59 -20 104 -43t86.5 -57.5t64 -84t22.5 -111.5q0 -134 -96.5 -216.5t-258.5 -82.5q-222 0 -327 108l43 64
q109 -93 282 -93q114 0 184 58.5t70 152.5q0 81 -56.5 133.5t-158.5 88.5l-112 36q-127 41 -191.5 101.5t-64.5 171.5z" />
    <glyph glyph-name="t" unicode="t" horiz-adv-x="772" 
d="M33 991v84h192v316h99v-316h415v-84h-415v-712q0 -95 57 -154t149 -59q122 0 226 38v-81q-94 -43 -254 -43q-125 0 -201 77t-76 203v731h-192z" />
    <glyph glyph-name="u" unicode="u" horiz-adv-x="1265" 
d="M164 395v680h98v-655q0 -160 100.5 -257t264.5 -97t264 97t100 257v655h99v-1075h-97l-2 205q-47 -107 -146 -166t-247 -59q-195 0 -314.5 114.5t-119.5 300.5z" />
    <glyph glyph-name="v" unicode="v" horiz-adv-x="1136" 
d="M29 1075h110l430 -960l430 960h109l-490 -1075h-100z" />
    <glyph glyph-name="w" unicode="w" horiz-adv-x="1945" 
d="M33 1075h110l394 -960l391 960h90l391 -960l393 960h111l-449 -1075h-100l-391 965l-391 -965h-101z" />
    <glyph glyph-name="x" unicode="x" horiz-adv-x="1085" 
d="M33 0l448 551l-424 524h121l365 -459l364 459h121l-424 -524l449 -551h-123l-387 485l-387 -485h-123z" />
    <glyph glyph-name="y" unicode="y" horiz-adv-x="1136" 
d="M33 1075h110l435 -956l423 956h111l-602 -1317q-52 -118 -107 -173.5t-151 -55.5q-70 0 -119 22l12 82q38 -18 91 -18q34 0 60.5 10.5t47.5 34t35.5 47.5t34.5 64l110 239z" />
    <glyph glyph-name="z" unicode="z" horiz-adv-x="1019" 
d="M76 0v68l710 923h-700v84h838v-67l-709 -924h737v-84h-876z" />
    <glyph glyph-name="braceleft" unicode="{" horiz-adv-x="778" 
d="M68 569v90h18q78 0 127 72.5t49 190.5v413q0 128 72 205.5t192 77.5q99 0 197 -25v-86q-97 23 -176 23q-80 0 -130 -60t-50 -157v-402q0 -114 -42.5 -195.5t-111.5 -101.5q69 -20 111.5 -101.5t42.5 -195.5v-401q0 -97 50 -157t130 -60q83 0 176 22v-86q-95 -24 -197 -24
q-120 0 -192 77.5t-72 205.5v413q0 118 -49 190t-127 72h-18z" />
    <glyph glyph-name="bar" unicode="|" horiz-adv-x="518" 
d="M207 -451v2048h104v-2048h-104z" />
    <glyph glyph-name="braceright" unicode="}" horiz-adv-x="778" 
d="M57 -279q90 -22 174 -22q82 0 131.5 60t49.5 157v401q0 114 42 195.5t111 101.5q-69 20 -111 101.5t-42 195.5v402q0 97 -49.5 157t-131.5 60q-80 0 -174 -23v86q95 25 195 25q120 0 192 -77.5t72 -205.5v-413q0 -118 49 -190.5t127 -72.5h19v-90h-19q-78 0 -127 -72
t-49 -190v-413q0 -128 -72 -205.5t-192 -77.5q-104 0 -195 24v86z" />
    <glyph glyph-name="asciitilde" unicode="~" horiz-adv-x="1161" 
d="M162 508h67q0 61 47 99t115 38q37 0 75 -16.5t71 -39.5t67.5 -46t77.5 -39.5t88 -16.5q101 0 167.5 61t66.5 161h-68q0 -63 -47.5 -101.5t-116.5 -38.5q-37 0 -74.5 16.5t-70.5 40t-67.5 47t-78 40t-88.5 16.5q-100 0 -165.5 -61.5t-65.5 -159.5z" />
    <glyph glyph-name="uni00A0" unicode="&#xa0;" horiz-adv-x="557" 
 />
    <glyph glyph-name="exclamdown" unicode="&#xa1;" horiz-adv-x="475" 
d="M164 1022q0 31 21.5 52.5t52.5 21.5q32 0 52.5 -21.5t20.5 -52.5q0 -33 -20.5 -54.5t-52.5 -21.5q-31 0 -52.5 22t-21.5 54zM184 -451l9 1231h90l8 -1231h-107z" />
    <glyph glyph-name="cent" unicode="&#xa2;" horiz-adv-x="1142" 
d="M123 641q0 241 138 393t368 164v82h63v-82q177 -9 314 -115l-60 -69q-111 89 -254 98v-944q174 10 287 123l57 -68q-128 -128 -344 -141v-82h-63v82q-229 9 -367.5 162t-138.5 397zM227 639q0 -201 109.5 -329t292.5 -140v940q-182 -11 -292 -139t-110 -332z" />
    <glyph glyph-name="sterling" unicode="&#xa3;" horiz-adv-x="1175" 
d="M113 0v86h127v576h-107v86h107v411q0 170 109 273.5t288 103.5q180 0 289.5 -104.5t109.5 -274.5l-104 -8q0 134 -81.5 216.5t-213.5 82.5q-131 0 -212 -83t-81 -218v-399h629v-86h-629v-576h703v-86h-934z" />
    <glyph glyph-name="currency" unicode="&#xa4;" horiz-adv-x="1222" 
d="M154 307l112 113q-104 120 -104 285q0 161 104 284l-112 111l63 61l113 -110q122 98 282 98q158 0 283 -100l113 112l61 -63l-111 -111q103 -128 103 -282q0 -159 -103 -283l111 -113l-61 -63l-113 112q-121 -100 -283 -100q-160 0 -282 98l-113 -110zM250 705
q0 -153 106 -261t256 -108q149 0 255 108.5t106 260.5q0 151 -106 258.5t-255 107.5q-150 0 -256 -107.5t-106 -258.5z" />
    <glyph glyph-name="yen" unicode="&#xa5;" horiz-adv-x="1368" 
d="M61 1516h119l504 -785l504 785h117l-537 -834h330v-74h-361v-131h361v-74h-361v-403h-106v403h-361v74h361v131h-361v74h330z" />
    <glyph glyph-name="brokenbar" unicode="&#xa6;" horiz-adv-x="509" 
d="M203 369h104v-820h-104v820zM203 778v819h104v-819h-104z" />
    <glyph glyph-name="section" unicode="&#xa7;" horiz-adv-x="1175" 
d="M127 686q0 167 111 275q-111 96 -111 258q0 180 126.5 289.5t332.5 109.5q265 0 418 -174l-52 -76q-144 162 -368 162q-156 0 -251 -82t-95 -215q0 -67 22.5 -117.5t67.5 -85t89.5 -56t112.5 -44.5l101 -35q49 -17 85 -30.5t83.5 -36.5t81.5 -46t69.5 -56.5t58 -70.5
t36.5 -86.5t14 -105.5q0 -160 -111 -268q111 -106 111 -265q0 -180 -134 -290.5t-354 -110.5q-135 0 -250 43t-186 129l45 76q144 -160 383 -160q174 0 279.5 83t105.5 220q0 69 -27 123.5t-81 95.5t-116.5 70t-152.5 59l-98 33q-61 21 -107 42t-93.5 53.5t-77.5 71.5
t-49 94.5t-19 123.5zM233 700q0 -55 16.5 -99.5t41.5 -74.5t67 -56.5t79.5 -43t92.5 -35.5l101 -33q153 -52 239 -104q82 79 82 201q0 56 -19 102.5t-51 82t-82 66.5t-103.5 54t-125.5 47l-98 31q-107 39 -156 67q-84 -81 -84 -205z" />
    <glyph glyph-name="dieresis" unicode="&#xa8;" horiz-adv-x="1228" 
d="M147 1458q0 31 22 52.5t54 21.5q31 0 52.5 -21.5t21.5 -52.5q0 -32 -21.5 -54t-52.5 -22q-32 0 -54 22t-22 54zM532 1458q0 31 21.5 52.5t52.5 21.5q32 0 53 -21.5t21 -52.5q0 -32 -21 -54t-53 -22q-31 0 -52.5 22t-21.5 54z" />
    <glyph glyph-name="copyright" unicode="&#xa9;" horiz-adv-x="1738" 
d="M117 758q0 231 93 408t264 273.5t396 96.5q339 0 545.5 -213.5t206.5 -564.5t-206.5 -564.5t-545.5 -213.5q-225 0 -396 96.5t-264 273.5t-93 408zM195 758q0 -323 185 -520t490 -197q304 0 489 197t185 520t-185 520t-489 197q-305 0 -490 -197t-185 -520zM461 752
q0 192 115.5 310t304.5 118q188 0 313 -138l-49 -51q-107 119 -260 119q-152 0 -245 -97.5t-93 -258.5q0 -164 92.5 -263.5t243.5 -99.5q90 0 161.5 39t118.5 107l56 -52q-57 -77 -143.5 -119t-194.5 -42q-188 0 -304 117.5t-116 310.5z" />
    <glyph glyph-name="ordfeminine" unicode="&#xaa;" horiz-adv-x="804" 
d="M115 1051q0 88 71.5 141t190.5 53q90 0 198 -24v51q0 93 -54.5 148t-145.5 55q-112 0 -185 -76l-34 47q90 90 235 90q117 0 187.5 -69t70.5 -183v-407h-74v147q-34 -75 -100.5 -117.5t-148.5 -42.5q-95 0 -153 51t-58 136zM193 1051q0 -60 41.5 -95.5t111.5 -35.5
q89 0 159 67.5t70 179.5q-100 23 -188 23t-141 -37.5t-53 -101.5z" />
    <glyph glyph-name="guillemotleft" unicode="&#xab;" horiz-adv-x="1107" 
d="M96 553l359 455h104l-350 -455l350 -455h-104zM539 553l356 455h106l-350 -455l350 -455h-106z" />
    <glyph glyph-name="logicalnot" unicode="&#xac;" horiz-adv-x="1175" 
d="M166 770v84h850v-385h-98v301h-752z" />
    <glyph glyph-name="uni00AD" unicode="&#xad;" horiz-adv-x="858" 
d="M152 549v76h555v-76h-555z" />
    <glyph glyph-name="registered" unicode="&#xae;" horiz-adv-x="856" 
d="M121 1305q0 141 84.5 227t222.5 86t222.5 -86t84.5 -227q0 -140 -84.5 -226t-222.5 -86t-222.5 86t-84.5 226zM162 1305q0 -127 72.5 -204t193.5 -77q120 0 194 77.5t74 203.5t-74 204t-194 78q-121 0 -193.5 -77.5t-72.5 -204.5zM309 1137v333h131q51 0 82 -28t31 -74
q0 -32 -18.5 -56.5t-49.5 -35.5l93 -139h-54l-84 133h-84v-133h-47zM356 1307h76q33 0 53.5 17t20.5 44q0 31 -20 49.5t-52 18.5h-78v-129z" />
    <glyph glyph-name="macron" unicode="&#xaf;" horiz-adv-x="1228" 
d="M145 1341v82h600v-82h-600z" />
    <glyph glyph-name="degree" unicode="&#xb0;" horiz-adv-x="722" 
d="M109 1380q0 107 68.5 172.5t182.5 65.5q115 0 184.5 -65.5t69.5 -172.5q0 -109 -69 -174t-185 -65q-114 0 -182.5 65t-68.5 174zM186 1380q0 -80 48 -129t126 -49q79 0 128 49t49 129q0 78 -49 127t-128 49q-78 0 -126 -49t-48 -127z" />
    <glyph glyph-name="plusminus" unicode="&#xb1;" horiz-adv-x="1173" 
d="M178 186v86h817v-86h-817zM178 793v84h361v368h96v-368h360v-84h-360v-369h-96v369h-361z" />
    <glyph glyph-name="uni00B2" unicode="&#xb2;" horiz-adv-x="712" 
d="M70 811v53l274 293q4 4 29.5 31.5t34 37t32 37t33.5 42.5t26.5 42t24 47.5t13.5 46t6 50.5q0 81 -51.5 127.5t-137.5 46.5q-89 0 -141.5 -50.5t-52.5 -135.5l-80 6q0 112 74.5 180t197.5 68q122 0 196.5 -64.5t74.5 -171.5q0 -44 -15 -89.5t-32 -78t-55 -80t-58.5 -69.5
t-67.5 -72l-219 -231l459 2v-68h-565z" />
    <glyph glyph-name="uni00B3" unicode="&#xb3;" horiz-adv-x="710" 
d="M61 903l33 60q72 -97 219 -97q109 0 174.5 55.5t65.5 149.5q0 89 -64.5 143t-169.5 54q-77 0 -141 -31l-24 41l344 375h-402v67h512v-49l-323 -346q32 4 61 4q131 0 211 -70.5t80 -187.5q0 -123 -85.5 -197.5t-227.5 -74.5q-86 0 -155 27t-108 77z" />
    <glyph glyph-name="acute" unicode="&#xb4;" horiz-adv-x="1228" 
d="M272 1270h90l302 297h-129z" />
    <glyph glyph-name="paragraph" unicode="&#xb6;" horiz-adv-x="1112" 
d="M68 1192q0 146 84 235t221 89h510v-1967h-86v1887h-236v-1887h-86v1313h-135q-123 0 -197.5 91t-74.5 239z" />
    <glyph glyph-name="periodcentered" unicode="&#xb7;" horiz-adv-x="462" 
d="M147 588q0 35 25 59.5t59 24.5t59 -24.5t25 -59.5q0 -34 -25 -59t-59 -25t-59 25t-25 59z" />
    <glyph glyph-name="cedilla" unicode="&#xb8;" horiz-adv-x="1228" 
d="M47 -410l25 50q54 -54 159 -54q78 0 125 30.5t47 80.5q0 49 -45.5 77.5t-119.5 28.5q-58 0 -105 -18l-18 35l114 180h68l-98 -150q45 5 61 5q96 0 154.5 -43.5t58.5 -114.5q0 -75 -64 -121.5t-171 -46.5q-130 0 -191 61z" />
    <glyph glyph-name="uni00B9" unicode="&#xb9;" horiz-adv-x="520" 
d="M25 1501l294 219h62v-909h-80v805l-235 -172z" />
    <glyph glyph-name="ordmasculine" unicode="&#xba;" horiz-adv-x="874" 
d="M111 1200q0 151 89.5 243.5t237.5 92.5q146 0 237 -92.5t91 -243.5q0 -152 -90.5 -244t-237.5 -92q-148 0 -237.5 92t-89.5 244zM188 1200q0 -123 68.5 -197.5t181.5 -74.5q111 0 179.5 74.5t68.5 197.5q0 121 -68.5 195.5t-179.5 74.5q-112 0 -181 -74t-69 -196z" />
    <glyph glyph-name="guillemotright" unicode="&#xbb;" horiz-adv-x="1107" 
d="M106 98l351 455l-351 455h107l356 -455l-356 -455h-107zM549 98l350 455l-350 455h104l359 -455l-359 -455h-104z" />
    <glyph glyph-name="onequarter" unicode="&#xbc;" horiz-adv-x="1589" 
d="M25 1296l294 220h62v-910h-80v805l-235 -172zM236 20l888 1516l64 -41l-889 -1515zM866 201v59l467 649h68v-641h139v-67h-139v-201h-80v201h-455zM944 264h379l2 531z" />
    <glyph glyph-name="onehalf" unicode="&#xbd;" horiz-adv-x="1615" 
d="M25 1296l294 220h62v-910h-80v805l-235 -172zM236 20l888 1516l64 -41l-889 -1515zM973 0v53l274 293q4 4 29.5 31.5t34 37t32 37t33.5 42.5t26.5 42t24 47.5t13.5 46t6 50.5q0 81 -51.5 127.5t-137.5 46.5q-89 0 -141.5 -50.5t-52.5 -135.5l-80 6q0 112 74.5 180
t197.5 68q122 0 196.5 -64.5t74.5 -171.5q0 -44 -15 -89.5t-32 -78t-55 -80t-58.5 -69.5t-67.5 -72l-219 -231l459 2v-68h-565z" />
    <glyph glyph-name="threequarters" unicode="&#xbe;" horiz-adv-x="1779" 
d="M61 698l33 60q71 -96 219 -96q109 0 174.5 55.5t65.5 148.5q0 89 -64.5 143t-169.5 54q-77 0 -141 -31l-24 41l344 375h-402v68h512v-50l-323 -346q32 4 61 4q131 0 211 -70.5t80 -187.5q0 -123 -85.5 -197.5t-227.5 -74.5q-86 0 -155 27t-108 77zM426 20l889 1516
l63 -41l-889 -1515zM1055 201v59l467 649h67v-641h140v-67h-140v-201h-80v201h-454zM1133 264h378l2 531z" />
    <glyph glyph-name="questiondown" unicode="&#xbf;" horiz-adv-x="1026" 
d="M72 -90q0 62 13 110.5t42.5 89t53.5 64t69 62.5q47 41 71 64t62.5 73.5t58 100.5t35 130t15.5 176h88q0 -80 -8.5 -150t-20 -120t-34 -97.5t-39.5 -76t-48 -63t-47.5 -50t-50.5 -45.5q-40 -33 -59 -51t-44.5 -50.5t-36 -71t-10.5 -87.5q0 -135 93.5 -218t246.5 -83
q148 0 242 83t98 218l101 -4q-6 -173 -127.5 -279t-313.5 -106q-202 0 -326 105t-124 276zM461 1022q0 31 21.5 52.5t52.5 21.5q32 0 53.5 -21.5t21.5 -52.5q0 -32 -21.5 -54t-53.5 -22q-31 0 -52.5 22t-21.5 54z" />
    <glyph glyph-name="Agrave" unicode="&#xc0;" 
d="M10 0l672 1516h100l672 -1516h-113l-190 432h-840l-188 -432h-113zM350 520h762l-379 871zM406 2007h129l262 -297h-92z" />
    <glyph glyph-name="Aacute" unicode="&#xc1;" 
d="M10 0l672 1516h100l672 -1516h-113l-190 432h-840l-188 -432h-113zM350 520h762l-379 871zM670 1710l262 297h129l-301 -297h-90z" />
    <glyph glyph-name="Acircumflex" unicode="&#xc2;" 
d="M10 0l672 1516h100l672 -1516h-113l-190 432h-840l-188 -432h-113zM350 520h762l-379 871zM414 1710l264 297h108l263 -297h-99l-217 238l-219 -238h-100z" />
    <glyph glyph-name="Atilde" unicode="&#xc3;" 
d="M10 0l672 1516h100l672 -1516h-113l-190 432h-840l-188 -432h-113zM350 520h762l-379 871zM377 1751q0 99 53.5 160t136.5 61q48 0 95 -24.5t79 -54t74.5 -54t81.5 -24.5q51 0 86 38t35 99h67q0 -100 -53.5 -160.5t-136.5 -60.5q-47 0 -94 25t-79 54.5t-75 54.5t-82 25
q-51 0 -86 -38.5t-35 -100.5h-67z" />
    <glyph glyph-name="Adieresis" unicode="&#xc4;" 
d="M10 0l672 1516h100l672 -1516h-113l-190 432h-840l-188 -432h-113zM350 520h762l-379 871zM465 1898q0 31 22 52.5t54 21.5q31 0 52 -21.5t21 -52.5q0 -32 -21 -53.5t-52 -21.5q-32 0 -54 21.5t-22 53.5zM850 1898q0 31 21.5 52.5t52.5 21.5q32 0 52.5 -21.5t20.5 -52.5
q0 -32 -20.5 -53.5t-52.5 -21.5q-31 0 -52.5 21.5t-21.5 53.5z" />
    <glyph glyph-name="Aring" unicode="&#xc5;" 
d="M10 0l672 1516h100l672 -1516h-113l-190 432h-840l-188 -432h-113zM350 520h762l-379 871zM516 1849q0 96 60 154.5t157 58.5t157 -58.5t60 -154.5t-60 -154.5t-157 -58.5t-157 58.5t-60 154.5zM586 1849q0 -71 40 -113t107 -42t107.5 42t40.5 113t-40.5 114.5
t-107.5 43.5t-107 -43.5t-40 -114.5z" />
    <glyph glyph-name="AE" unicode="&#xc6;" horiz-adv-x="2164" 
d="M-18 0l882 1516h1157v-89h-1036l174 -608h815v-90h-788l182 -641h672v-88h-760l-121 432h-813l-248 -432h-116zM397 520h738l-244 864z" />
    <glyph glyph-name="Ccedilla" unicode="&#xc7;" horiz-adv-x="1544" 
d="M115 760q0 172 54 317t152 246t238 157t307 56q334 0 561 -248l-65 -67q-202 227 -490 227q-292 0 -469.5 -188.5t-177.5 -497.5q0 -312 176 -503t463 -191q169 0 306 73.5t227 198.5l71 -68q-101 -136 -256.5 -214t-345.5 -78l-86 -130q50 5 64 5q96 0 154.5 -43.5
t58.5 -114.5q0 -75 -64.5 -121.5t-171.5 -46.5q-129 0 -190 61l24 50q54 -54 160 -54q78 0 125 30.5t47 80.5q0 49 -46 77.5t-120 28.5q-57 0 -104 -18l-19 35l103 162q-311 22 -498.5 233t-187.5 545z" />
    <glyph glyph-name="Egrave" unicode="&#xc8;" horiz-adv-x="1259" 
d="M217 0v1516h899v-89h-792v-608h745v-90h-745v-641h811v-88h-918zM338 2007h129l262 -297h-92z" />
    <glyph glyph-name="Eacute" unicode="&#xc9;" horiz-adv-x="1259" 
d="M217 0v1516h899v-89h-792v-608h745v-90h-745v-641h811v-88h-918zM602 1710l262 297h129l-301 -297h-90z" />
    <glyph glyph-name="Ecircumflex" unicode="&#xca;" horiz-adv-x="1259" 
d="M217 0v1516h899v-89h-792v-608h745v-90h-745v-641h811v-88h-918zM348 1710l264 297h109l262 -297h-98l-217 238l-219 -238h-101z" />
    <glyph glyph-name="Edieresis" unicode="&#xcb;" horiz-adv-x="1259" 
d="M217 0v1516h899v-89h-792v-608h745v-90h-745v-641h811v-88h-918zM399 1898q0 31 22 52.5t54 21.5q31 0 52.5 -21.5t21.5 -52.5q0 -32 -21.5 -53.5t-52.5 -21.5q-32 0 -54 21.5t-22 53.5zM784 1898q0 31 21.5 52.5t52.5 21.5q32 0 53 -21.5t21 -52.5q0 -32 -21 -53.5
t-53 -21.5q-31 0 -52.5 21.5t-21.5 53.5z" />
    <glyph glyph-name="Igrave" unicode="&#xcc;" horiz-adv-x="540" 
d="M-57 2007l299 -297h92l-262 297h-129zM217 0v1516h107v-1516h-107z" />
    <glyph glyph-name="Iacute" unicode="&#xcd;" horiz-adv-x="540" 
d="M207 1710h90l301 297h-129zM217 0v1516h107v-1516h-107z" />
    <glyph glyph-name="Icircumflex" unicode="&#xce;" horiz-adv-x="540" 
d="M-47 1710l264 297h109l262 -297h-99l-217 238l-219 -238h-100zM217 0v1516h107v-1516h-107z" />
    <glyph glyph-name="Idieresis" unicode="&#xcf;" horiz-adv-x="540" 
d="M2 1898q0 31 22 52.5t54 21.5q31 0 52.5 -21.5t21.5 -52.5q0 -32 -21.5 -53.5t-52.5 -21.5q-32 0 -54 21.5t-22 53.5zM217 0v1516h107v-1516h-107zM387 1898q0 31 21.5 52.5t52.5 21.5q32 0 53 -21.5t21 -52.5q0 -32 -21 -53.5t-53 -21.5q-31 0 -52.5 21.5t-21.5 53.5z
" />
    <glyph glyph-name="Eth" unicode="&#xd0;" horiz-adv-x="1546" 
d="M39 725v76h178v715h483q162 0 298.5 -55t232 -154t148.5 -241.5t53 -311.5q0 -339 -201.5 -546.5t-530.5 -207.5h-483v725h-178zM324 88h360q287 0 462 183t175 483q0 303 -175 488t-462 185h-360v-626h440v-76h-440v-637z" />
    <glyph glyph-name="Ntilde" unicode="&#xd1;" horiz-adv-x="1697" 
d="M217 0v1516h70l1089 -1330v1330h105v-1516h-70l-1089 1329l2 -1329h-107zM492 1751h67q0 62 35 100.5t86 38.5q39 0 82 -25t75 -54.5t79 -54.5t94 -25q83 0 136.5 60.5t53.5 160.5h-67q0 -61 -35 -99t-86 -38q-39 0 -81.5 24.5t-74.5 54t-79 54t-95 24.5
q-83 0 -136.5 -61t-53.5 -160z" />
    <glyph glyph-name="Ograve" unicode="&#xd2;" horiz-adv-x="1714" 
d="M115 758q0 350 204.5 564t538.5 214q333 0 537 -214t204 -564t-204 -564t-537 -214q-334 0 -538.5 214t-204.5 564zM225 758q0 -310 174.5 -500t458.5 -190t457.5 189.5t173.5 500.5t-173.5 500.5t-457.5 189.5t-458.5 -190t-174.5 -500zM530 2007l299 -297h93l-263 297
h-129z" />
    <glyph glyph-name="Oacute" unicode="&#xd3;" horiz-adv-x="1714" 
d="M115 758q0 350 204.5 564t538.5 214q333 0 537 -214t204 -564t-204 -564t-537 -214q-334 0 -538.5 214t-204.5 564zM225 758q0 -310 174.5 -500t458.5 -190t457.5 189.5t173.5 500.5t-173.5 500.5t-457.5 189.5t-458.5 -190t-174.5 -500zM795 1710h90l301 297h-129z" />
    <glyph glyph-name="Ocircumflex" unicode="&#xd4;" horiz-adv-x="1714" 
d="M115 758q0 350 204.5 564t538.5 214q333 0 537 -214t204 -564t-204 -564t-537 -214q-334 0 -538.5 214t-204.5 564zM225 758q0 -310 174.5 -500t458.5 -190t457.5 189.5t173.5 500.5t-173.5 500.5t-457.5 189.5t-458.5 -190t-174.5 -500zM541 1710l264 297h108l263 -297
h-99l-217 238l-219 -238h-100z" />
    <glyph glyph-name="Otilde" unicode="&#xd5;" horiz-adv-x="1714" 
d="M115 758q0 350 204.5 564t538.5 214q333 0 537 -214t204 -564t-204 -564t-537 -214q-334 0 -538.5 214t-204.5 564zM225 758q0 -310 174.5 -500t458.5 -190t457.5 189.5t173.5 500.5t-173.5 500.5t-457.5 189.5t-458.5 -190t-174.5 -500zM502 1751h67q0 62 35 100.5
t86 38.5q39 0 82 -25t75 -54.5t79 -54.5t94 -25q83 0 136.5 60.5t53.5 160.5h-67q0 -61 -35 -99t-86 -38q-39 0 -81.5 24.5t-74.5 54t-79 54t-95 24.5q-83 0 -136.5 -61t-53.5 -160z" />
    <glyph glyph-name="Odieresis" unicode="&#xd6;" horiz-adv-x="1714" 
d="M115 758q0 350 204.5 564t538.5 214q333 0 537 -214t204 -564t-204 -564t-537 -214q-334 0 -538.5 214t-204.5 564zM225 758q0 -310 174.5 -500t458.5 -190t457.5 189.5t173.5 500.5t-173.5 500.5t-457.5 189.5t-458.5 -190t-174.5 -500zM590 1898q0 31 22 52.5t54 21.5
q31 0 52 -21.5t21 -52.5q0 -32 -21 -53.5t-52 -21.5q-32 0 -54 21.5t-22 53.5zM975 1898q0 31 21.5 52.5t52.5 21.5q32 0 52.5 -21.5t20.5 -52.5q0 -32 -20.5 -53.5t-52.5 -21.5q-31 0 -52.5 21.5t-21.5 53.5z" />
    <glyph glyph-name="multiply" unicode="&#xd7;" horiz-adv-x="1011" 
d="M141 1010l64 61l301 -303l303 303l61 -61l-303 -303l303 -304l-61 -61l-303 303l-301 -303l-62 61l301 304z" />
    <glyph glyph-name="Oslash" unicode="&#xd8;" horiz-adv-x="1724" 
d="M119 758q0 231 93 408t262 273.5t390 96.5q303 0 500 -178l164 178l53 -45l-168 -182q193 -212 193 -551q0 -350 -204.5 -564t-537.5 -214q-305 0 -504 180l-165 -180l-52 45l168 182q-192 211 -192 551zM231 758q0 -287 150 -473l915 997q-171 166 -432 166
q-189 0 -332.5 -86t-222 -242.5t-78.5 -361.5zM428 233q170 -165 436 -165q283 0 457 190t174 500q0 283 -152 475z" />
    <glyph glyph-name="Ugrave" unicode="&#xd9;" horiz-adv-x="1609" 
d="M199 528v988h104v-984q0 -209 138 -336.5t364 -127.5t364 127.5t138 336.5v984h106v-988q0 -247 -167 -397.5t-441 -150.5t-440 150t-166 398zM477 2007l299 -297h92l-262 297h-129z" />
    <glyph glyph-name="Uacute" unicode="&#xda;" horiz-adv-x="1609" 
d="M199 528v988h104v-984q0 -209 138 -336.5t364 -127.5t364 127.5t138 336.5v984h106v-988q0 -247 -167 -397.5t-441 -150.5t-440 150t-166 398zM741 1710h90l302 297h-129z" />
    <glyph glyph-name="Ucircumflex" unicode="&#xdb;" horiz-adv-x="1609" 
d="M199 528v988h104v-984q0 -209 138 -336.5t364 -127.5t364 127.5t138 336.5v984h106v-988q0 -247 -167 -397.5t-441 -150.5t-440 150t-166 398zM487 1710l265 297h108l262 -297h-98l-217 238l-219 -238h-101z" />
    <glyph glyph-name="Udieresis" unicode="&#xdc;" horiz-adv-x="1609" 
d="M199 528v988h104v-984q0 -209 138 -336.5t364 -127.5t364 127.5t138 336.5v984h106v-988q0 -247 -167 -397.5t-441 -150.5t-440 150t-166 398zM537 1898q0 31 21.5 52.5t53.5 21.5q31 0 52.5 -21.5t21.5 -52.5q0 -32 -21.5 -53.5t-52.5 -21.5q-32 0 -53.5 21.5
t-21.5 53.5zM922 1898q0 31 21 52.5t52 21.5q32 0 53 -21.5t21 -52.5q0 -32 -21 -53.5t-53 -21.5q-31 0 -52 21.5t-21 53.5z" />
    <glyph glyph-name="Yacute" unicode="&#xdd;" horiz-adv-x="1316" 
d="M37 1516h119l503 -785l502 785h119l-569 -881v-635h-105v635zM598 1710l262 297h129l-301 -297h-90z" />
    <glyph glyph-name="Thorn" unicode="&#xde;" horiz-adv-x="1306" 
d="M217 0v1516h107v-293h421q217 0 349.5 -124t132.5 -327q0 -206 -131.5 -332.5t-347.5 -126.5h-424v-313h-107zM324 403h403q177 0 283 100t106 265q0 166 -107 266.5t-282 100.5h-403v-732z" />
    <glyph glyph-name="germandbls" unicode="&#xdf;" horiz-adv-x="1222" 
d="M176 0v1227q0 177 119 284t313 107q197 0 318 -107t121 -284q0 -134 -70.5 -231.5t-194.5 -139.5q158 -40 249 -153t91 -273q0 -203 -136 -326.5t-359 -123.5q-90 0 -158 24l12 84q55 -22 133 -22q183 0 293.5 102t110.5 270q0 169 -113 272t-297 103v82q151 0 242.5 87
t91.5 232q0 143 -92 230.5t-242 87.5t-242 -87t-92 -231v-1214h-98z" />
    <glyph glyph-name="agrave" unicode="&#xe0;" horiz-adv-x="1118" 
d="M82 285q0 145 118.5 233t313.5 88q173 0 342 -43v96q0 161 -93.5 258t-250.5 97q-192 0 -313 -133l-47 63q142 152 378 152q193 0 308.5 -115t115.5 -303v-678h-96l-2 238v24q-53 -132 -169 -207t-259 -75q-156 0 -251 83.5t-95 221.5zM186 287q0 -105 73.5 -168.5
t195.5 -63.5q71 0 141.5 29.5t128.5 82.5t94.5 137.5t36.5 184.5q-166 43 -330 43q-154 0 -247 -67.5t-93 -177.5zM229 1567h129l263 -297h-93z" />
    <glyph glyph-name="aacute" unicode="&#xe1;" horiz-adv-x="1118" 
d="M82 285q0 145 118.5 233t313.5 88q173 0 342 -43v96q0 161 -93.5 258t-250.5 97q-192 0 -313 -133l-47 63q142 152 378 152q193 0 308.5 -115t115.5 -303v-678h-96l-2 238v24q-53 -132 -169 -207t-259 -75q-156 0 -251 83.5t-95 221.5zM186 287q0 -105 73.5 -168.5
t195.5 -63.5q71 0 141.5 29.5t128.5 82.5t94.5 137.5t36.5 184.5q-166 43 -330 43q-154 0 -247 -67.5t-93 -177.5zM494 1270l262 297h129l-301 -297h-90z" />
    <glyph glyph-name="acircumflex" unicode="&#xe2;" horiz-adv-x="1118" 
d="M82 285q0 145 118.5 233t313.5 88q173 0 342 -43v96q0 161 -93.5 258t-250.5 97q-192 0 -313 -133l-47 63q142 152 378 152q193 0 308.5 -115t115.5 -303v-678h-96l-2 238v24q-53 -132 -169 -207t-259 -75q-156 0 -251 83.5t-95 221.5zM186 287q0 -105 73.5 -168.5
t195.5 -63.5q71 0 141.5 29.5t128.5 82.5t94.5 137.5t36.5 184.5q-166 43 -330 43q-154 0 -247 -67.5t-93 -177.5zM238 1270l264 297h108l262 -297h-98l-217 237l-219 -237h-100z" />
    <glyph glyph-name="atilde" unicode="&#xe3;" horiz-adv-x="1118" 
d="M82 285q0 145 118.5 233t313.5 88q173 0 342 -43v96q0 161 -93.5 258t-250.5 97q-192 0 -313 -133l-47 63q142 152 378 152q193 0 308.5 -115t115.5 -303v-678h-96l-2 238v24q-53 -132 -169 -207t-259 -75q-156 0 -251 83.5t-95 221.5zM186 287q0 -105 73.5 -168.5
t195.5 -63.5q71 0 141.5 29.5t128.5 82.5t94.5 137.5t36.5 184.5q-166 43 -330 43q-154 0 -247 -67.5t-93 -177.5zM201 1311q0 99 53.5 160t136.5 61q39 0 77 -16.5t67.5 -39.5t58.5 -46t61.5 -39.5t65.5 -16.5q51 0 86 38t35 99h67q0 -100 -53.5 -160.5t-136.5 -60.5
q-39 0 -76.5 16.5t-67 40t-58.5 47t-62 40t-66 16.5q-51 0 -86 -38.5t-35 -100.5h-67z" />
    <glyph glyph-name="adieresis" unicode="&#xe4;" horiz-adv-x="1118" 
d="M82 285q0 145 118.5 233t313.5 88q173 0 342 -43v96q0 161 -93.5 258t-250.5 97q-192 0 -313 -133l-47 63q142 152 378 152q193 0 308.5 -115t115.5 -303v-678h-96l-2 238v24q-53 -132 -169 -207t-259 -75q-156 0 -251 83.5t-95 221.5zM186 287q0 -105 73.5 -168.5
t195.5 -63.5q71 0 141.5 29.5t128.5 82.5t94.5 137.5t36.5 184.5q-166 43 -330 43q-154 0 -247 -67.5t-93 -177.5zM289 1458q0 31 22 52.5t54 21.5q31 0 52 -21.5t21 -52.5q0 -32 -21 -54t-52 -22q-32 0 -54 22t-22 54zM674 1458q0 31 21.5 52.5t52.5 21.5q32 0 52.5 -21.5
t20.5 -52.5q0 -33 -20.5 -54.5t-52.5 -21.5q-31 0 -52.5 22t-21.5 54z" />
    <glyph glyph-name="aring" unicode="&#xe5;" horiz-adv-x="1118" 
d="M82 285q0 145 118.5 233t313.5 88q173 0 342 -43v96q0 161 -93.5 258t-250.5 97q-192 0 -313 -133l-47 63q142 152 378 152q193 0 308.5 -115t115.5 -303v-678h-96l-2 238v24q-53 -132 -169 -207t-259 -75q-156 0 -251 83.5t-95 221.5zM186 287q0 -105 73.5 -168.5
t195.5 -63.5q71 0 141.5 29.5t128.5 82.5t94.5 137.5t36.5 184.5q-166 43 -330 43q-154 0 -247 -67.5t-93 -177.5zM340 1409q0 96 60 154.5t157 58.5t157 -58.5t60 -154.5t-60 -154.5t-157 -58.5t-157 58.5t-60 154.5zM410 1409q0 -71 40 -113.5t107 -42.5t107.5 42.5
t40.5 113.5t-40.5 114.5t-107.5 43.5t-107 -43.5t-40 -114.5z" />
    <glyph glyph-name="ae" unicode="&#xe6;" horiz-adv-x="1937" 
d="M82 285q0 145 118.5 233t313.5 88q173 0 342 -43v96q0 161 -93.5 258t-250.5 97q-192 0 -313 -133l-47 63q139 152 374 152q147 0 251.5 -72.5t144.5 -196.5q61 127 173 198t259 71q220 0 355.5 -150.5t135.5 -394.5v-51h-891q12 -201 118 -321t278 -120q115 0 213 54.5
t170 150.5l73 -47q-79 -116 -195 -176.5t-255 -60.5q-160 0 -278.5 83.5t-172.5 231.5q-52 -146 -179.5 -230.5t-287.5 -84.5t-258 83.5t-98 221.5zM186 287q0 -105 73.5 -168.5t195.5 -63.5q71 0 141.5 29.5t128.5 82.5t94.5 137.5t36.5 184.5q-166 43 -330 43
q-154 0 -247 -67.5t-93 -177.5zM954 573h787q-6 201 -112.5 321t-280.5 120q-173 0 -279.5 -120.5t-114.5 -320.5z" />
    <glyph glyph-name="ccedilla" unicode="&#xe7;" horiz-adv-x="1087" 
d="M104 539q0 251 148.5 404t392.5 153q197 0 342 -115l-59 -70q-122 99 -285 99q-195 0 -314.5 -130t-119.5 -343q0 -212 120 -341.5t318 -129.5q192 0 314 122l57 -67q-138 -138 -373 -141l-86 -130q50 5 64 5q96 0 154.5 -43.5t58.5 -114.5q0 -75 -64.5 -121.5
t-171.5 -46.5q-129 0 -190 61l24 50q54 -54 160 -54q78 0 125 30.5t47 80.5q0 49 -46 77.5t-120 28.5q-58 0 -104 -18l-19 35l103 162q-216 19 -346 170t-130 387z" />
    <glyph glyph-name="egrave" unicode="&#xe8;" horiz-adv-x="1193" 
d="M106 541q0 250 137 402.5t361 152.5q223 0 359.5 -150t136.5 -395v-51h-889q11 -201 117 -321t278 -120q115 0 213 54.5t170 150.5l74 -47q-81 -116 -198.5 -176.5t-256.5 -60.5q-226 0 -364 154.5t-138 406.5zM211 573h786q-8 201 -114 321t-279 120t-279 -120.5
t-114 -320.5zM276 1567h130l262 -297h-93z" />
    <glyph glyph-name="eacute" unicode="&#xe9;" horiz-adv-x="1193" 
d="M106 541q0 250 137 402.5t361 152.5q223 0 359.5 -150t136.5 -395v-51h-889q11 -201 117 -321t278 -120q115 0 213 54.5t170 150.5l74 -47q-81 -116 -198.5 -176.5t-256.5 -60.5q-226 0 -364 154.5t-138 406.5zM211 573h786q-8 201 -114 321t-279 120t-279 -120.5
t-114 -320.5zM541 1270l262 297h129l-301 -297h-90z" />
    <glyph glyph-name="ecircumflex" unicode="&#xea;" horiz-adv-x="1193" 
d="M106 541q0 250 137 402.5t361 152.5q223 0 359.5 -150t136.5 -395v-51h-889q11 -201 117 -321t278 -120q115 0 213 54.5t170 150.5l74 -47q-81 -116 -198.5 -176.5t-256.5 -60.5q-226 0 -364 154.5t-138 406.5zM211 573h786q-8 201 -114 321t-279 120t-279 -120.5
t-114 -320.5zM285 1270l264 297h108l263 -297h-99l-217 237l-219 -237h-100z" />
    <glyph glyph-name="edieresis" unicode="&#xeb;" horiz-adv-x="1193" 
d="M106 541q0 250 137 402.5t361 152.5q223 0 359.5 -150t136.5 -395v-51h-889q11 -201 117 -321t278 -120q115 0 213 54.5t170 150.5l74 -47q-81 -116 -198.5 -176.5t-256.5 -60.5q-226 0 -364 154.5t-138 406.5zM211 573h786q-8 201 -114 321t-279 120t-279 -120.5
t-114 -320.5zM336 1458q0 31 22 52.5t54 21.5q31 0 52 -21.5t21 -52.5q0 -32 -21 -54t-52 -22q-32 0 -54 22t-22 54zM721 1458q0 31 21.5 52.5t52.5 21.5q32 0 52.5 -21.5t20.5 -52.5q0 -33 -20.5 -54.5t-52.5 -21.5q-31 0 -52.5 22t-21.5 54z" />
    <glyph glyph-name="igrave" unicode="&#xec;" horiz-adv-x="458" 
d="M-98 1567l299 -297h92l-262 297h-129zM180 0v1075h99v-1075h-99z" />
    <glyph glyph-name="iacute" unicode="&#xed;" horiz-adv-x="458" 
d="M166 1270h90l301 297h-129zM180 0v1075h99v-1075h-99z" />
    <glyph glyph-name="icircumflex" unicode="&#xee;" horiz-adv-x="458" 
d="M-88 1270l264 297h109l262 -297h-98l-218 237l-219 -237h-100zM180 0v1075h99v-1075h-99z" />
    <glyph glyph-name="idieresis" unicode="&#xef;" horiz-adv-x="458" 
d="M-39 1458q0 31 22 52.5t54 21.5q31 0 52.5 -21.5t21.5 -52.5q0 -32 -21.5 -54t-52.5 -22q-32 0 -54 22t-22 54zM180 0v1075h99v-1075h-99zM346 1458q0 31 21.5 52.5t52.5 21.5q32 0 53 -21.5t21 -52.5q0 -32 -21 -54t-53 -22q-31 0 -52.5 22t-21.5 54z" />
    <glyph glyph-name="eth" unicode="&#xf0;" horiz-adv-x="1290" 
d="M104 539q0 248 143.5 399.5t373.5 151.5q240 0 380 -160q-116 259 -387 467l-180 -121l-63 43l184 123q-102 72 -195 121l82 55q115 -64 193 -121l180 121l62 -45l-181 -121q236 -182 360 -402.5t124 -465.5q0 -278 -147 -441t-390 -163t-391 153.5t-148 405.5zM209 537
q0 -212 119.5 -341.5t314.5 -129.5t314.5 129.5t119.5 341.5q0 213 -120.5 343t-313.5 130q-195 0 -314.5 -130t-119.5 -343z" />
    <glyph glyph-name="ntilde" unicode="&#xf1;" horiz-adv-x="1288" 
d="M176 0v1075h96l2 -207q49 108 151.5 168t254.5 60q200 0 323 -114.5t123 -303.5v-678h-98v655q0 160 -104 257.5t-273 97.5t-273 -97.5t-104 -257.5v-655h-98zM297 1311q0 99 53.5 160t136.5 61q39 0 77 -16.5t67.5 -39.5t58.5 -46t61.5 -39.5t65.5 -16.5q51 0 86 38
t35 99h68q0 -100 -54 -160.5t-137 -60.5q-39 0 -76.5 16.5t-67 40t-58.5 47t-62 40t-66 16.5q-51 0 -85.5 -38.5t-34.5 -100.5h-68z" />
    <glyph glyph-name="ograve" unicode="&#xf2;" horiz-adv-x="1284" 
d="M104 537q0 252 148 405.5t391 153.5q242 0 389.5 -153.5t147.5 -405.5q0 -250 -147.5 -403.5t-389.5 -153.5q-243 0 -391 153t-148 404zM209 537q0 -212 119 -341.5t315 -129.5q195 0 314.5 129.5t119.5 341.5q0 213 -119.5 343t-314.5 130q-196 0 -315 -129.5
t-119 -343.5zM315 1567l299 -297h93l-263 297h-129z" />
    <glyph glyph-name="oacute" unicode="&#xf3;" horiz-adv-x="1284" 
d="M104 537q0 252 148 405.5t391 153.5q242 0 389.5 -153.5t147.5 -405.5q0 -250 -147.5 -403.5t-389.5 -153.5q-243 0 -391 153t-148 404zM209 537q0 -212 119 -341.5t315 -129.5q195 0 314.5 129.5t119.5 341.5q0 213 -119.5 343t-314.5 130q-196 0 -315 -129.5
t-119 -343.5zM580 1270h90l301 297h-129z" />
    <glyph glyph-name="ocircumflex" unicode="&#xf4;" horiz-adv-x="1284" 
d="M104 537q0 252 148 405.5t391 153.5q242 0 389.5 -153.5t147.5 -405.5q0 -250 -147.5 -403.5t-389.5 -153.5q-243 0 -391 153t-148 404zM209 537q0 -212 119 -341.5t315 -129.5q195 0 314.5 129.5t119.5 341.5q0 213 -119.5 343t-314.5 130q-196 0 -315 -129.5
t-119 -343.5zM326 1270l264 297h108l263 -297h-99l-217 237l-219 -237h-100z" />
    <glyph glyph-name="otilde" unicode="&#xf5;" horiz-adv-x="1284" 
d="M104 537q0 252 148 405.5t391 153.5q242 0 389.5 -153.5t147.5 -405.5q0 -250 -147.5 -403.5t-389.5 -153.5q-243 0 -391 153t-148 404zM209 537q0 -212 119 -341.5t315 -129.5q195 0 314.5 129.5t119.5 341.5q0 213 -119.5 343t-314.5 130q-196 0 -315 -129.5
t-119 -343.5zM287 1311h67q0 62 35 100.5t86 38.5q33 0 66 -16.5t62 -40t58.5 -47t67 -40t76.5 -16.5q83 0 136.5 60.5t53.5 160.5h-67q0 -61 -35 -99t-86 -38q-33 0 -65.5 16.5t-61.5 39.5t-58.5 46t-67.5 39.5t-77 16.5q-83 0 -136.5 -61t-53.5 -160z" />
    <glyph glyph-name="odieresis" unicode="&#xf6;" horiz-adv-x="1284" 
d="M104 537q0 252 148 405.5t391 153.5q242 0 389.5 -153.5t147.5 -405.5q0 -250 -147.5 -403.5t-389.5 -153.5q-243 0 -391 153t-148 404zM209 537q0 -212 119 -341.5t315 -129.5q195 0 314.5 129.5t119.5 341.5q0 213 -119.5 343t-314.5 130q-196 0 -315 -129.5
t-119 -343.5zM375 1458q0 31 22 52.5t54 21.5q31 0 52 -21.5t21 -52.5q0 -32 -21 -54t-52 -22q-32 0 -54 22t-22 54zM760 1458q0 31 21.5 52.5t52.5 21.5q32 0 52.5 -21.5t20.5 -52.5q0 -33 -20.5 -54.5t-52.5 -21.5q-31 0 -52.5 22t-21.5 54z" />
    <glyph glyph-name="divide" unicode="&#xf7;" horiz-adv-x="1150" 
d="M152 666v84h849v-84h-849zM502 412q0 31 21 52t52 21q32 0 53 -21t21 -52q0 -32 -21 -54t-53 -22q-31 0 -52 22t-21 54zM502 1006q0 31 21 52t52 21q32 0 53 -21t21 -52q0 -32 -21 -54t-53 -22q-31 0 -52 22t-21 54z" />
    <glyph glyph-name="oslash" unicode="&#xf8;" horiz-adv-x="1292" 
d="M109 537q0 252 147.5 405.5t390.5 153.5q216 0 357 -123l110 123l51 -39l-116 -129q135 -151 135 -391q0 -250 -147.5 -403.5t-389.5 -153.5q-214 0 -358 122l-111 -122l-53 38l119 129q-135 151 -135 390zM211 537q0 -190 98 -318l629 684q-116 107 -291 107
q-197 0 -316.5 -129.5t-119.5 -343.5zM354 172q115 -106 293 -106q194 0 313 129.5t119 341.5q0 193 -98 317z" />
    <glyph glyph-name="ugrave" unicode="&#xf9;" horiz-adv-x="1265" 
d="M164 395v680h98v-655q0 -160 100.5 -257t264.5 -97t264 97t100 257v655h99v-1075h-97l-2 205q-47 -107 -146 -166t-247 -59q-195 0 -314.5 114.5t-119.5 300.5zM299 1567h129l262 -297h-92z" />
    <glyph glyph-name="uacute" unicode="&#xfa;" horiz-adv-x="1265" 
d="M164 395v680h98v-655q0 -160 100.5 -257t264.5 -97t264 97t100 257v655h99v-1075h-97l-2 205q-47 -107 -146 -166t-247 -59q-195 0 -314.5 114.5t-119.5 300.5zM563 1270l262 297h129l-301 -297h-90z" />
    <glyph glyph-name="ucircumflex" unicode="&#xfb;" horiz-adv-x="1265" 
d="M164 395v680h98v-655q0 -160 100.5 -257t264.5 -97t264 97t100 257v655h99v-1075h-97l-2 205q-47 -107 -146 -166t-247 -59q-195 0 -314.5 114.5t-119.5 300.5zM307 1270l264 297h109l262 -297h-98l-217 237l-219 -237h-101z" />
    <glyph glyph-name="udieresis" unicode="&#xfc;" horiz-adv-x="1265" 
d="M164 395v680h98v-655q0 -160 100.5 -257t264.5 -97t264 97t100 257v655h99v-1075h-97l-2 205q-47 -107 -146 -166t-247 -59q-195 0 -314.5 114.5t-119.5 300.5zM358 1458q0 31 22 52.5t54 21.5q31 0 52.5 -21.5t21.5 -52.5q0 -32 -21.5 -54t-52.5 -22q-32 0 -54 22
t-22 54zM743 1458q0 31 21.5 52.5t52.5 21.5q32 0 53 -21.5t21 -52.5q0 -32 -21 -54t-53 -22q-31 0 -52.5 22t-21.5 54z" />
    <glyph glyph-name="yacute" unicode="&#xfd;" horiz-adv-x="1136" 
d="M33 1075h110l435 -956l423 956h111l-602 -1317q-52 -118 -107 -173.5t-151 -55.5q-70 0 -119 22l12 82q38 -18 91 -18q34 0 60.5 10.5t47.5 34t35.5 47.5t34.5 64l110 239zM510 1270h90l301 297h-129z" />
    <glyph glyph-name="thorn" unicode="&#xfe;" horiz-adv-x="1351" 
d="M176 -451v2048h98v-792q55 136 170.5 213.5t286.5 77.5q229 0 372.5 -153.5t143.5 -401.5q0 -252 -143 -406.5t-373 -154.5q-171 0 -286.5 77t-170.5 211v-719h-98zM274 537q0 -212 120 -341.5t315 -129.5q197 0 316.5 129.5t119.5 343.5q0 212 -120 341.5t-316 129.5
q-195 0 -315 -130t-120 -343z" />
    <glyph glyph-name="ydieresis" unicode="&#xff;" horiz-adv-x="1136" 
d="M33 1075h110l435 -956l423 956h111l-602 -1317q-52 -118 -107 -173.5t-151 -55.5q-70 0 -119 22l12 82q38 -18 91 -18q34 0 60.5 10.5t47.5 34t35.5 47.5t34.5 64l110 239zM305 1458q0 31 22 52.5t54 21.5q31 0 52.5 -21.5t21.5 -52.5q0 -32 -21.5 -54t-52.5 -22
q-32 0 -54 22t-22 54zM690 1458q0 31 21.5 52.5t52.5 21.5q32 0 53 -21.5t21 -52.5q0 -32 -21 -54t-53 -22q-31 0 -52.5 22t-21.5 54z" />
    <glyph glyph-name="OE" unicode="&#x152;" horiz-adv-x="2537" 
d="M115 758q0 350 203 564t536 214q219 0 385.5 -100t255.5 -279v359h897v-89h-793v-608h748v-90h-748v-641h814v-88h-918v358q-89 -179 -255.5 -278.5t-385.5 -99.5q-333 0 -536 214t-203 564zM225 758q0 -310 174.5 -500t458.5 -190t457.5 189.5t173.5 500.5t-173.5 500.5
t-457.5 189.5t-458.5 -190t-174.5 -500z" />
    <glyph glyph-name="oe" unicode="&#x153;" horiz-adv-x="2164" 
d="M104 537q0 252 147 405.5t388 153.5q178 0 306 -92.5t181 -255.5q48 162 167.5 255t285.5 93q221 0 356.5 -150t135.5 -395v-51h-889q11 -201 116.5 -321t278.5 -120q115 0 213 54.5t170 150.5l74 -47q-81 -116 -197 -176.5t-254 -60.5q-167 0 -287.5 93.5t-167.5 256.5
q-53 -164 -181 -257t-308 -93q-241 0 -388 153t-147 404zM209 537q0 -212 119.5 -341.5t314.5 -129.5t314.5 129.5t119.5 341.5q0 213 -119.5 343t-314.5 130t-314.5 -130t-119.5 -343zM1182 573h786q-8 201 -114 321t-279 120t-279 -120.5t-114 -320.5z" />
    <glyph glyph-name="Ydieresis" unicode="&#x178;" horiz-adv-x="1316" 
d="M37 1516h119l503 -785l502 785h119l-569 -881v-635h-105v635zM393 1898q0 31 22 52.5t54 21.5q31 0 52.5 -21.5t21.5 -52.5q0 -32 -21.5 -53.5t-52.5 -21.5q-32 0 -54 21.5t-22 53.5zM778 1898q0 31 21.5 52.5t52.5 21.5q32 0 53 -21.5t21 -52.5q0 -32 -21 -53.5
t-53 -21.5q-31 0 -52.5 21.5t-21.5 53.5z" />
    <glyph glyph-name="circumflex" unicode="&#x2c6;" horiz-adv-x="1228" 
d="M94 1270l264 297h109l262 -297h-98l-219 237l-217 -237h-101z" />
    <glyph glyph-name="tilde" unicode="&#x2dc;" horiz-adv-x="1228" 
d="M121 1311h67q0 62 35 100.5t86 38.5q33 0 66 -16.5t62 -40t58.5 -47t67 -40t76.5 -16.5q83 0 136.5 60.5t53.5 160.5h-67q0 -61 -35 -99t-86 -38q-33 0 -65.5 16.5t-61.5 39.5t-58.5 46t-67.5 39.5t-77 16.5q-83 0 -136.5 -61t-53.5 -160z" />
    <glyph glyph-name="uni2000" unicode="&#x2000;" horiz-adv-x="1031" 
 />
    <glyph glyph-name="uni2001" unicode="&#x2001;" horiz-adv-x="2062" 
 />
    <glyph glyph-name="uni2002" unicode="&#x2002;" horiz-adv-x="1031" 
 />
    <glyph glyph-name="uni2003" unicode="&#x2003;" horiz-adv-x="2062" 
 />
    <glyph glyph-name="uni2004" unicode="&#x2004;" horiz-adv-x="687" 
 />
    <glyph glyph-name="uni2005" unicode="&#x2005;" horiz-adv-x="515" 
 />
    <glyph glyph-name="uni2006" unicode="&#x2006;" horiz-adv-x="343" 
 />
    <glyph glyph-name="uni2007" unicode="&#x2007;" horiz-adv-x="343" 
 />
    <glyph glyph-name="uni2008" unicode="&#x2008;" horiz-adv-x="257" 
 />
    <glyph glyph-name="uni2009" unicode="&#x2009;" horiz-adv-x="412" 
 />
    <glyph glyph-name="uni200A" unicode="&#x200a;" horiz-adv-x="114" 
 />
    <glyph glyph-name="uni2010" unicode="&#x2010;" horiz-adv-x="858" 
d="M152 549v76h555v-76h-555z" />
    <glyph glyph-name="uni2011" unicode="&#x2011;" horiz-adv-x="858" 
d="M152 549v76h555v-76h-555z" />
    <glyph glyph-name="figuredash" unicode="&#x2012;" horiz-adv-x="858" 
d="M152 549v76h555v-76h-555z" />
    <glyph glyph-name="endash" unicode="&#x2013;" horiz-adv-x="1128" 
d="M152 549v76h823v-76h-823z" />
    <glyph glyph-name="emdash" unicode="&#x2014;" horiz-adv-x="1785" 
d="M152 549v76h1480v-76h-1480z" />
    <glyph glyph-name="quoteleft" unicode="&#x2018;" horiz-adv-x="434" 
d="M109 1098l153 418h88l-137 -418h-104z" />
    <glyph glyph-name="quoteright" unicode="&#x2019;" horiz-adv-x="434" 
d="M113 1098l137 418h104l-153 -418h-88z" />
    <glyph glyph-name="quotesinglbase" unicode="&#x201a;" horiz-adv-x="411" 
d="M31 -287l137 418h104l-153 -418h-88z" />
    <glyph glyph-name="quotedblleft" unicode="&#x201c;" horiz-adv-x="700" 
d="M113 1096l153 417h90l-139 -417h-104zM375 1096l153 417h88l-137 -417h-104z" />
    <glyph glyph-name="quotedblright" unicode="&#x201d;" horiz-adv-x="694" 
d="M113 1100l137 418h104l-153 -418h-88zM373 1100l139 418h104l-153 -418h-90z" />
    <glyph glyph-name="quotedblbase" unicode="&#x201e;" horiz-adv-x="671" 
d="M31 -287l137 418h104l-153 -418h-88zM291 -287l139 418h105l-154 -418h-90z" />
    <glyph glyph-name="bullet" unicode="&#x2022;" horiz-adv-x="716" 
d="M195 659q0 74 45 119t118 45q74 0 119 -45.5t45 -118.5t-45 -118t-119 -45t-118.5 45t-44.5 118z" />
    <glyph glyph-name="ellipsis" unicode="&#x2026;" horiz-adv-x="1179" 
d="M131 63q0 35 25 59.5t59 24.5t59 -24.5t25 -59.5q0 -34 -25 -58.5t-59 -24.5t-59 24.5t-25 58.5zM506 63q0 35 25 59.5t59 24.5q35 0 59.5 -24.5t24.5 -59.5q0 -34 -24.5 -58.5t-59.5 -24.5q-34 0 -59 24.5t-25 58.5zM881 63q0 35 25.5 59.5t60.5 24.5q34 0 59 -24.5
t25 -59.5q0 -34 -25 -58.5t-59 -24.5q-35 0 -60.5 24.5t-25.5 58.5z" />
    <glyph glyph-name="uni202F" unicode="&#x202f;" horiz-adv-x="412" 
 />
    <glyph glyph-name="guilsinglleft" unicode="&#x2039;" horiz-adv-x="665" 
d="M96 553l359 455h104l-350 -455l350 -455h-104z" />
    <glyph glyph-name="guilsinglright" unicode="&#x203a;" horiz-adv-x="665" 
d="M106 98l351 455l-351 455h107l356 -455l-356 -455h-107z" />
    <glyph glyph-name="uni205F" unicode="&#x205f;" horiz-adv-x="515" 
 />
    <glyph glyph-name="Euro" unicode="&#x20ac;" horiz-adv-x="1648" 
d="M86 582v73h113q-4 70 -4 105v26h-109v76h113q32 307 234 490.5t513 183.5q336 0 563 -248l-67 -67q-202 227 -488 227q-266 0 -439.5 -159.5t-201.5 -426.5h602v-76h-608v-24q0 -54 6 -107h602v-73h-591q50 -237 215 -375.5t407 -138.5q168 0 305.5 73.5t225.5 198.5
l73 -68q-101 -136 -257.5 -214t-346.5 -78q-292 0 -488.5 162t-246.5 440h-125z" />
    <glyph glyph-name="trademark" unicode="&#x2122;" horiz-adv-x="1456" 
d="M80 1540v57h457v-57h-195v-528h-70v528h-192zM616 1012l37 585h66l239 -524l240 524h64l38 -585h-69l-27 461l-215 -461h-61l-215 465l-27 -465h-70z" />
    <glyph glyph-name="uni25FC" unicode="&#x25fc;" horiz-adv-x="1075" 
d="M0 0v1075h1075v-1075h-1075z" />
    </font>
</defs>
</svg>
